<?xml version="1.0" encoding="UTF-8" standalone="no"?>
<!-- Created with Inkscape (http://www.inkscape.org/) -->

<svg
   width="100mm"
   height="100mm"
   viewBox="0 0 100 100"
   version="1.1"
   id="svg1"
   inkscape:version="1.4.3 (0d15f75, 2025-12-25)"
   sodipodi:docname="lolik_main_icon_small.svg"
   xmlns:inkscape="http://www.inkscape.org/namespaces/inkscape"
   xmlns:sodipodi="http://sodipodi.sourceforge.net/DTD/sodipodi-0.dtd"
   xmlns="http://www.w3.org/2000/svg"
   xmlns:svg="http://www.w3.org/2000/svg">
  <sodipodi:namedview
     id="namedview1"
     pagecolor="#ffffff"
     bordercolor="#000000"
     borderopacity="0.25"
     inkscape:showpageshadow="2"
     inkscape:pageopacity="0.0"
     inkscape:pagecheckerboard="0"
     inkscape:deskcolor="#d1d1d1"
     inkscape:document-units="mm"
     inkscape:zoom="0.35355339"
     inkscape:cx="-24.041631"
     inkscape:cy="287.08535"
     inkscape:window-width="1600"
     inkscape:window-height="847"
     inkscape:window-x="-8"
     inkscape:window-y="-8"
     inkscape:window-maximized="1"
     inkscape:current-layer="g5"
     showguides="true" />
  <defs
     id="defs1" />
  <g
     inkscape:label="Layer 1"
     inkscape:groupmode="layer"
     id="layer1">
    <text
       xml:space="preserve"
       style="font-size:138.907px;font-family:Calibri;-inkscape-font-specification:'Calibri, Normal';text-align:center;text-orientation:sideways;text-anchor:middle;fill:#00ff00;stroke:none;stroke-width:0.600001;stroke-dasharray:none;stroke-opacity:1"
       x="116.15208"
       y="94.456245"
       id="text36"><tspan
         sodipodi:role="line"
         id="tspan36"
         style="stroke-width:0.6"
         x="116.15208"
         y="94.456245" /></text>
    <g
       id="g37"
       transform="matrix(2.3219487,0,0,2.3219487,-161.62454,-74.944687)"
       inkscape:export-filename="Lolik-MainIcon.png"
       inkscape:export-xdpi="96"
       inkscape:export-ydpi="96">
      <g
         id="g1"
         inkscape:export-filename="Lolik-MainIcon.png"
         inkscape:export-xdpi="96"
         inkscape:export-ydpi="96">
        <g
           id="g2"
           inkscape:export-filename="Lolik-MainIcon.png"
           inkscape:export-xdpi="96"
           inkscape:export-ydpi="96">
          <g
             id="g3"
             inkscape:export-filename="Lolik-MainIcon.png"
             inkscape:export-xdpi="96"
             inkscape:export-ydpi="96">
            <g
               id="g4"
               inkscape:export-filename="Lolik-MainIcon.png"
               inkscape:export-xdpi="96"
               inkscape:export-ydpi="96">
              <g
                 id="g5"
                 inkscape:export-filename="Lolik-MainIcon.png"
                 inkscape:export-xdpi="96"
                 inkscape:export-ydpi="96">
                <g
                   id="g6"
                   inkscape:export-filename="Lolik-MainIcon-Small.png"
                   inkscape:export-xdpi="100"
                   inkscape:export-ydpi="100"
                   transform="matrix(0.26700891,0,0,0.27487094,60.409855,30.635133)">
                  <g
                     id="g7"
                     inkscape:export-filename="Lolik-MainIcon.png"
                     inkscape:export-xdpi="96"
                     inkscape:export-ydpi="96">
                    <g
                       id="g8"
                       inkscape:export-filename="Lolik-MainIcon.png"
                       inkscape:export-xdpi="96"
                       inkscape:export-ydpi="96">
                      <g
                         id="g9"
                         inkscape:export-filename="Lolik-MainIcon.png"
                         inkscape:export-xdpi="96"
                         inkscape:export-ydpi="96">
                        <g
                           id="g10"
                           inkscape:export-filename="Lolik-MainIcon.png"
                           inkscape:export-xdpi="96"
                           inkscape:export-ydpi="96">
                          <ellipse
                             style="fill:#ff0000;stroke:none;stroke-width:0.641427;stroke-dasharray:none;stroke-opacity:1"
                             id="path1"
                             cx="115.09378"
                             cy="88.483749"
                             rx="43.268341"
                             ry="37.859798" />
                          <path
                             id="path2"
                             style="fill:#00ff00;stroke-width:0.253155"
                             inkscape:transform-center-x="-0.74892664"
                             inkscape:transform-center-y="-1.4896448"
                             d="m 127.48358,77.60876 -12.37219,-12.6648 -14.735,9.815718 8.22173,-15.680293 -14.559381,-3.672161 43.341181,0.654782 -14.67828,4.49972 z"
                             sodipodi:nodetypes="cccccccc" />
                          <path
                             style="fill:#00ff00;stroke:none;stroke-width:1.13386;stroke-dasharray:none;stroke-opacity:1"
                             d="m 443.25,210.69403 c -33.1375,-0.50324 -66.20407,-1.06085 -73.48125,-1.23913 l -13.23126,-0.32416 1.98126,-1.01652 c 6.33735,-3.2515 19.34833,-7.93944 29.39643,-10.59172 15.55633,-4.10623 29.61801,-5.85472 47.08482,-5.85472 21.98355,0 40.62142,3.05012 60.25,9.86002 6.32937,2.19591 17.56198,6.9126 21.84694,9.17376 L 519,211.7058 l -7.75,-0.0484 c -4.2625,-0.0266 -34.8625,-0.46014 -68,-0.96337 z"
                             id="path3"
                             transform="scale(0.26458333)" />
                          <path
                             style="fill:#00ff00;stroke:none;stroke-width:1.13386;stroke-dasharray:none;stroke-opacity:1"
                             d="m 458.01442,268.79746 -22.88485,-23.46995 -27.2895,18.19487 c -15.00922,10.00717 -27.38012,18.10424 -27.49088,17.99348 -0.11076,-0.11076 6.59974,-13.17026 14.91222,-29.02111 8.31249,-15.85085 14.91673,-28.99931 14.6761,-29.2188 -0.24063,-0.21949 -11.94539,-3.29637 -26.01057,-6.83751 L 358.35388,210 368.92694,209.73495 379.5,209.4699 l -11.25,-0.134 -11.25,-0.134 2.96793,-1.53096 c 7.04141,-3.63219 22.05872,-8.70162 33.67183,-11.36669 14.6309,-3.35761 23.27022,-4.25445 41.11024,-4.26765 18.24005,-0.0135 28.67726,1.10929 43.80635,4.71248 10.95216,2.6084 27.26227,8.48897 36.50921,13.16331 3.33026,1.68345 3.39652,1.75326 2.18444,2.30144 -0.6875,0.31092 -12.90928,4.13679 -27.15951,8.50192 -14.25024,4.36513 -26.01795,8.04504 -26.15048,8.17758 -0.13254,0.13253 3.71876,14.35623 8.55843,31.60822 4.83968,17.25199 8.70973,31.45694 8.60012,31.56655 -0.10961,0.10962 -10.49748,-10.36218 -23.08414,-23.27064 z m 44.63717,-57.41989 c -2.66662,-0.0897 -7.16662,-0.0901 -10,-8e-4 -2.83337,0.0893 -0.65159,0.16269 4.84841,0.16314 5.5,4.4e-4 7.81822,-0.0726 5.15159,-0.16234 z m -33.25204,-0.49917 c -2.25525,-0.0924 -6.08025,-0.0929 -8.5,-0.001 -2.41975,0.0918 -0.57455,0.16747 4.10045,0.16805 4.675,5.7e-4 6.6548,-0.0746 4.39955,-0.16701 z m -36.75496,-0.49731 c -1.57047,-0.0989 -4.27047,-0.0997 -6,-0.002 -1.72953,0.0979 -0.44459,0.17884 2.85541,0.17983 3.3,9.9e-4 4.71506,-0.0791 3.14459,-0.17803 z m -31.29488,-0.50396 c -2.55766,-0.0909 -6.60766,-0.0905 -9,9.5e-4 -2.39234,0.0915 -0.29971,0.16585 4.65029,0.16533 4.95,-5.2e-4 6.90737,-0.0753 4.34971,-0.16628 z"
                             id="path4"
                             transform="scale(0.26458333)" />
                          <path
                             style="fill:#00ff00;stroke:none;stroke-width:1.13386;stroke-dasharray:none;stroke-opacity:1"
                             d="M 458.18997,269.02645 C 445.71049,256.2333 435.275,245.76262 435,245.75826 c -0.275,-0.004 -12.63887,8.08439 -27.47526,17.97499 -14.83639,9.8906 -27.0682,17.88995 -27.18181,17.77635 -0.1136,-0.11361 5.64277,-11.41224 12.79194,-25.10808 16.03883,-30.72597 16.73546,-32.11675 16.45409,-32.84998 -0.12496,-0.32563 -11.78359,-3.50794 -25.90808,-7.0718 L 358,210 l 6.75,-0.27223 6.75,-0.27223 -7.225,-0.10277 c -4.17929,-0.0594 -7.02476,-0.28778 -6.75,-0.54166 1.99756,-1.84568 22.28025,-9.18632 32.475,-11.75324 6.65427,-1.67547 17.17061,-3.57367 24.25,-4.37712 7.55713,-0.85766 33.83418,-0.85307 41.5,0.007 19.86755,2.22973 40.47833,8.14758 58.68817,16.8508 3.29715,1.57585 3.80938,1.97639 3.14693,2.46079 -0.43519,0.31822 -12.70232,4.24553 -27.26028,8.72737 l -26.46904,8.14878 1.21924,4.56213 c 0.67058,2.50916 4.60078,16.67686 8.73378,31.48377 4.13301,14.80691 7.41479,27.02142 7.29285,27.14336 -0.12194,0.12194 -10.43219,-10.24541 -22.91168,-23.03856 z"
                             id="path5"
                             transform="scale(0.26458333)" />
                          <path
                             style="fill:#00ff00;stroke:none;stroke-width:1.13386;stroke-dasharray:none;stroke-opacity:1"
                             d="M 457.96075,268.93245 435,245.61973 407.77089,263.66409 c -14.97601,9.92439 -27.32042,17.95304 -27.43202,17.84144 -0.11161,-0.1116 1.87695,-4.2085 4.41902,-9.10422 2.54206,-4.89572 9.0671,-17.45131 14.50008,-27.90131 5.43298,-10.45 10.02239,-19.47777 10.19869,-20.06171 0.38424,-1.27268 0.10111,-1.35716 -30.95666,-9.23707 L 358,210 l 4.25,-0.28185 4.25,-0.28185 -4.65451,-0.0931 c -2.62663,-0.0526 -4.53263,-0.29035 -4.37477,-0.54578 0.49203,-0.79612 11.77428,-5.32798 19.77928,-7.94496 12.21046,-3.99181 21.84757,-6.21505 34.25,-7.9013 8.19208,-1.11381 35.92065,-1.28981 44.5,-0.28245 16.57656,1.94636 31.35977,5.67317 47,11.84856 7.34638,2.90065 15.25,6.59722 15.25,7.13251 0,0.23787 -0.73125,0.66502 -1.625,0.94923 -0.89375,0.28421 -12.3125,3.81994 -25.375,7.85717 -13.0625,4.03723 -24.48125,7.5724 -25.375,7.85592 -0.89375,0.28353 -1.625,0.84986 -1.625,1.25853 0,0.40866 3.84481,14.5839 8.54401,31.50053 4.69921,16.91664 8.4503,30.85124 8.33575,30.96579 -0.11454,0.11454 -10.5406,-10.28246 -23.16901,-23.10445 z"
                             id="path6"
                             transform="scale(0.26458333)" />
                          <path
                             style="fill:#00ff00;stroke:none;stroke-width:1.13386;stroke-dasharray:none;stroke-opacity:1"
                             d="M 457.9474,268.96133 435,245.6508 407.78404,263.69277 c -14.96878,9.92308 -27.31647,17.94147 -27.43931,17.81863 -0.12284,-0.12285 3.66814,-7.71316 8.42439,-16.86738 14.6933,-28.27973 20.48088,-39.71873 20.48088,-40.47995 0,-0.98301 -1.4571,-1.40936 -28,-8.1928 -12.5125,-3.19776 -22.84375,-5.90572 -22.95833,-6.01769 -0.11459,-0.11197 0.89791,-0.2414 2.25,-0.28763 L 363,209.58189 360,209.29095 357,209 l 2.0699,-1.10705 c 5.49402,-2.93839 20.63741,-8.24183 31.1801,-10.91973 15.96686,-4.05567 31.05819,-5.5516 51,-5.05538 16.9071,0.42071 29.17059,2.24634 44.3445,6.60144 11.87231,3.40749 32.6555,11.78259 32.6555,13.15933 0,0.27161 -0.73125,0.72767 -1.625,1.01346 -5.53278,1.76919 -51.90954,16.05793 -52.11899,16.05793 -0.14081,0 -0.25601,0.26728 -0.25601,0.59396 0,0.32669 3.84793,14.51625 8.55097,31.53237 4.70303,17.01611 8.44811,31.04125 8.3224,31.16696 -0.12572,0.12572 -10.5549,-10.26117 -23.17597,-23.08196 z"
                             id="path7"
                             transform="scale(0.26458333)" />
                          <path
                             style="fill:#00ff00;stroke:none;stroke-width:1.13386;stroke-dasharray:none;stroke-opacity:1"
                             d="M 457.98005,269.05051 435,245.73133 l -27.21517,18.0025 c -14.96834,9.90138 -27.30182,17.91585 -27.40773,17.80993 -0.25352,-0.25351 0.70832,-2.15959 15.97946,-31.66654 7.15117,-13.81752 12.87728,-25.44814 12.72468,-25.84582 -0.35995,-0.93799 -2.84636,-1.65114 -28.79219,-8.25808 -11.94103,-3.04071 -21.82228,-5.63988 -21.95834,-5.77594 -0.13606,-0.13606 0.40887,-0.27931 1.21096,-0.31833 1.21808,-0.0593 1.12885,-0.12693 -0.54167,-0.4107 l -2,-0.33974 3.99647,-1.91057 c 12.7129,-6.07757 32.80557,-11.73249 50.00353,-14.07308 8.24474,-1.12209 37.51427,-1.31282 45.75,-0.29813 11.19602,1.37942 23.43087,3.99725 33.25274,7.1149 10.64191,3.37796 28.24726,10.84295 28.24726,11.97735 0,0.51277 -1.16836,0.89201 -32.41465,10.52167 -11.36556,3.5027 -20.87103,6.57493 -21.12327,6.82717 -0.49393,0.49392 -0.30713,1.21502 10.01009,38.64168 3.59779,13.05128 6.47314,23.93446 6.38968,24.18484 -0.0835,0.25038 -10.49277,-10.03839 -23.1318,-22.86393 z"
                             id="path8"
                             transform="scale(0.26458333)" />
                          <path
                             style="fill:#00ff00;stroke:none;stroke-width:1.13386;stroke-dasharray:none;stroke-opacity:1"
                             d="m 457.93716,269.01661 -22.93758,-23.27532 -2.74979,1.8603 c -12.65507,8.56146 -51.71552,34.09935 -51.88937,33.9255 -0.12115,-0.12115 2.53427,-5.5768 5.90092,-12.12368 17.1972,-33.44207 23.07059,-45.27103 22.6732,-45.66361 -0.64148,-0.63372 -8.68021,-2.85212 -29.83687,-8.23391 -10.39628,-2.64458 -19.39628,-5.00727 -20,-5.25042 -1.0377,-0.41793 -1.04304,-0.44705 -0.0977,-0.53293 0.68398,-0.0621 0.52597,-0.19931 -0.5,-0.43405 -1.49286,-0.34157 -1.48573,-0.35049 1.5,-1.8754 6.67802,-3.41069 21.62024,-8.48084 32.75,-11.11263 14.02214,-3.31574 25.47185,-4.53992 42.5,-4.54404 21.46133,-0.005 37.6139,2.45088 56.48299,8.58848 11.11711,3.61609 26.51701,10.23084 26.51701,11.38992 0,0.49217 -4.03761,1.81061 -33.5,10.93906 -9.7625,3.02476 -18.35526,5.73109 -19.09502,6.01406 l -1.34501,0.51451 1.74435,6.61258 c 0.9594,3.63692 4.4153,16.30386 7.67979,28.14877 7.03949,25.54217 7.63828,27.83047 7.35628,28.11247 -0.11861,0.11861 -10.53756,-10.25824 -23.15323,-23.05966 z"
                             id="path9"
                             transform="scale(0.26458333)" />
                          <path
                             style="fill:#00ff00;stroke:none;stroke-width:1.13386;stroke-dasharray:none;stroke-opacity:1"
                             d="m 457.92971,269.05212 -22.9488,-23.23604 -7.99046,5.31151 c -25.14951,16.71768 -46.43495,30.59458 -46.62964,30.39988 -0.12289,-0.12289 3.10079,-6.70434 7.16375,-14.62545 15.45635,-30.1336 21.26147,-41.84649 21.11888,-42.61116 -0.20581,-1.10372 -2.62477,-1.83054 -26.0665,-7.83214 -11.31732,-2.89749 -21.42748,-5.49029 -22.46703,-5.76177 -1.03955,-0.27149 -1.76804,-0.69109 -1.61888,-0.93244 0.14917,-0.24136 -0.12529,-0.53461 -0.60991,-0.65168 -1.39603,-0.33724 7.67439,-4.42697 16.61888,-7.49323 22.64904,-7.76433 39.73651,-10.26775 66.25,-9.70604 21.00956,0.4451 34.5158,2.77512 53.22873,9.1827 11.45186,3.92129 24.27127,9.54187 24.27127,10.64157 0,0.52919 -3.19278,1.57625 -32.875,10.7812 -18.83357,5.84061 -20.625,6.49004 -20.625,7.47704 0,0.59448 3.23896,12.87606 7.19769,27.2924 9.44707,34.40298 9.46388,34.46663 9.17741,34.75309 -0.13563,0.13563 -10.57355,-10.20962 -23.19539,-22.98944 z"
                             id="path10"
                             transform="scale(0.26458333)" />
                          <path
                             style="fill:#00ff00;stroke:none;stroke-width:1.13386;stroke-dasharray:none;stroke-opacity:1"
                             d="M 457.98305,269.14946 435,245.94722 l -10.25,6.75946 c -34.01993,22.43477 -44.1796,29.03039 -44.39129,28.8187 -0.13069,-0.13069 2.38567,-5.36487 5.59192,-11.6315 15.10286,-29.51868 22.98735,-45.65576 22.52951,-46.11085 -0.67744,-0.67336 -7.07834,-2.45366 -29.81292,-8.29197 -12.15685,-3.12191 -20.16669,-5.4191 -20.67793,-5.93034 -0.77932,-0.77932 -0.52558,-0.97839 3.83811,-3.01111 12.11724,-5.64451 30.6771,-10.93304 47.06136,-13.40986 6.29786,-0.95206 9.25585,-1.0765 25.86124,-1.08797 15.23344,-0.0105 19.92218,0.1518 25,0.86552 16.6093,2.33453 30.92507,6.28921 47.16808,13.03003 6.018,2.49745 11.33192,5.2143 11.33192,5.79367 0,0.48607 -8.505,3.28737 -34.98958,11.52453 -16.78373,5.22002 -18.51042,5.84759 -18.51042,6.72762 0,0.34901 3.72341,14.29809 8.27425,30.99794 4.55084,16.69986 8.19947,30.58775 8.10805,30.86199 -0.0914,0.27424 -10.50857,-9.94239 -23.14925,-22.70362 z"
                             id="path11"
                             transform="scale(0.26458333)" />
                          <path
                             style="fill:#00ff00;stroke:none;stroke-width:1.13386;stroke-dasharray:none;stroke-opacity:1"
                             d="m 457.9933,269.21103 c -22.85814,-22.9435 -23.00065,-23.07485 -24.2433,-22.34288 -0.6875,0.40496 -12.1625,7.92322 -25.5,16.70723 -13.3375,8.78401 -25.11986,16.50125 -26.18302,17.14941 -1.90991,1.16439 -1.92899,1.1658 -1.59623,0.11736 0.18523,-0.58361 5.45992,-11.07592 11.72153,-23.31624 12.84887,-25.1172 16.30734,-32.40422 15.89242,-33.48547 -0.35967,-0.9373 -1.33866,-1.22184 -27.7659,-8.07014 -11.92467,-3.09013 -22.0233,-5.96052 -22.44142,-6.37864 -0.68029,-0.68028 -0.42467,-0.92993 2.4312,-2.37445 8.91233,-4.5079 24.98101,-9.60171 39.19142,-12.42377 12.63529,-2.50926 16.42549,-2.79609 36.5,-2.76226 16.54025,0.0279 19.26801,0.14935 25.75,1.14666 13.47355,2.07303 25.09786,5.07097 37.41901,9.65047 7.87408,2.92662 19.08099,8.12212 19.08099,8.84591 0,0.54084 -7.61845,3.1295 -25.25,8.57966 -18.06749,5.58491 -26.94845,8.53463 -27.61368,9.17159 -0.721,0.69036 -0.38352,2.05169 9.34942,37.71375 3.62346,13.27658 6.51222,24.36688 6.41948,24.64511 -0.0927,0.27823 -10.51561,-9.87975 -23.16192,-22.5733 z"
                             id="path13"
                             transform="scale(0.26458333)" />
                          <path
                             style="fill:#00ff00;stroke:none;stroke-width:1.13386;stroke-dasharray:none;stroke-opacity:1"
                             d="m 458.16879,269.42636 c -18.18463,-18.17243 -23.03484,-22.76265 -23.83173,-22.55426 -0.55028,0.14391 -8.27624,5.05775 -17.16879,10.91966 -30.11522,19.85175 -36.64495,24.0282 -36.80702,23.54198 -0.0889,-0.26679 4.6537,-9.90102 10.53918,-21.40941 12.30482,-24.06066 17.53403,-34.97244 17.18971,-35.86971 -0.31293,-0.8155 -3.36337,-1.69852 -28.52788,-8.25806 -11.51576,-3.00177 -21.26051,-5.78052 -21.65499,-6.17501 -0.623,-0.62299 -0.56547,-0.81471 0.43774,-1.45899 4.02474,-2.58475 20.09323,-8.33645 31.34827,-11.22107 16.60214,-4.25507 28.86668,-5.46413 51.05672,-5.03325 18.67264,0.36258 27.78375,1.63731 43.91951,6.14479 12.93964,3.61464 33.58049,12.03857 33.58049,13.70483 0,0.47532 -10.41987,3.95404 -32.25,10.7668 -8.525,2.66049 -16.68125,5.27824 -18.125,5.81722 -3.08219,1.15065 -3.17942,1.56844 -1.65844,7.12623 7.66793,28.01932 15.07334,55.91135 14.94557,56.2916 -0.0892,0.2654 -10.43618,-9.78461 -22.99334,-22.33335 z"
                             id="path14"
                             transform="scale(0.26458333)" />
                          <path
                             style="fill:#00ff00;stroke:none;stroke-width:1.13386;stroke-dasharray:none;stroke-opacity:1"
                             d="m 459,270.30984 c -12.1,-12.05295 -22.60411,-22.30095 -23.34246,-22.77333 -1.31558,-0.84168 -1.39567,-0.82473 -4,0.84648 -1.46165,0.93794 -13.12004,8.56818 -25.90754,16.95608 -24.29293,15.93483 -25.49624,16.69219 -25.50601,16.05352 -0.003,-0.21593 6.18131,-12.76759 13.74358,-27.89259 7.56227,-15.125 13.87155,-27.97919 14.02061,-28.56487 0.37359,-1.4678 -0.57098,-1.79516 -19.25818,-6.67432 -26.21807,-6.84545 -30.15337,-7.94989 -30.86596,-8.66249 -0.9344,-0.93439 -0.42088,-1.30418 5.31339,-3.82627 10.46316,-4.60198 28.4267,-9.86062 40.82168,-11.95012 10.11765,-1.70559 20.13499,-2.23213 36.48089,-1.91752 15.93005,0.3066 22.98056,1.04848 34.5,3.63022 11.30197,2.533 27.11224,7.89974 37.39963,12.69518 4.54418,2.11825 6.27682,3.26041 5.74809,3.78914 -0.45971,0.45971 -5.51414,2.12295 -26.64772,8.76884 -19.33832,6.08133 -24.66876,7.87682 -25.67278,8.64752 -0.44967,0.34517 -0.57766,1.10477 -0.38595,2.29056 0.15775,0.97577 3.78286,14.71163 8.05581,30.52413 4.27296,15.8125 7.70914,29.02547 7.63596,29.36215 C 481.05987,291.94883 471.1,282.36279 459,270.30984 Z"
                             id="path15"
                             transform="scale(0.26458333)" />
                          <path
                             style="fill:#00ff00;stroke:none;stroke-width:1.13386;stroke-dasharray:none;stroke-opacity:1"
                             d="m 465.75,276.96905 c -8.3875,-8.41425 -18.79051,-18.66538 -23.11779,-22.7803 -7.31943,-6.96022 -7.94669,-7.44029 -9,-6.88813 -0.62272,0.32644 -9.90721,6.34362 -20.63221,13.3715 -27.4067,17.95909 -32.37062,21.12392 -32.66708,20.82747 -0.14316,-0.14316 5.87271,-12.47452 13.36859,-27.40302 8.6981,-17.32279 13.65955,-27.7451 13.71368,-28.80774 0.10883,-2.1367 1.38268,-1.70091 -25.91519,-8.86569 -12.1,-3.17584 -22.52131,-6.10406 -23.15846,-6.50715 -1.70132,-1.07632 -0.87668,-1.74083 5.50093,-4.4328 15.96287,-6.73788 36.54034,-11.90635 52.65753,-13.22607 7.82073,-0.64038 28.17387,-0.64095 36.75,-10e-4 16.01655,1.1951 32.42919,5.16366 50.09699,12.11342 7.33838,2.8866 14.55747,6.38903 14.77718,7.16933 0.22911,0.81369 -0.41035,1.03875 -25.39126,8.93651 -23.98848,7.58401 -27.48291,8.82699 -27.48291,9.77578 0,0.91053 2.57591,10.81585 9.49164,36.49887 3.59142,13.3375 6.46877,24.53523 6.39411,24.88384 -0.0747,0.34861 -6.99825,-6.25054 -15.38575,-14.66479 z"
                             id="path16"
                             transform="scale(0.26458333)" />
                          <path
                             style="fill:#00ff00;stroke:none;stroke-width:1.13386;stroke-dasharray:none;stroke-opacity:1"
                             d="m 458.92605,270.29989 c -12.14067,-12.00445 -22.66874,-22.14459 -23.39571,-22.53365 -1.64023,-0.87783 0.72862,-2.26236 -25.53034,14.92184 -26.44552,17.30629 -29.45499,19.19694 -29.64581,18.62449 -0.0852,-0.25571 5.46108,-11.69529 12.32516,-25.42129 14.38743,-28.77035 15.36974,-30.92843 14.53554,-31.93358 -0.74667,-0.89968 -1.59355,-1.14611 -26.71489,-7.77351 -11.55,-3.04707 -21.53225,-5.87601 -22.18277,-6.28653 -1.02845,-0.64903 -1.089,-0.84018 -0.46407,-1.46511 1.98563,-1.98563 19.41692,-8.33532 31.14684,-11.34584 17.67591,-4.53659 27.90751,-5.57668 51,-5.18439 18.22641,0.30963 24.46562,1.02489 38.07784,4.36525 15.16426,3.72121 39.23049,12.90744 40.01997,15.27586 0.25936,0.7781 -0.70418,1.13645 -16.62298,6.18234 -21.97549,6.96572 -35.31627,11.41566 -35.86308,11.96248 -0.54458,0.54457 0.69185,5.5186 9.89527,39.80781 3.17332,11.82284 5.70742,21.75122 5.63132,22.06308 -0.0761,0.31186 -10.07162,-9.2548 -22.21229,-21.25925 z"
                             id="path17"
                             transform="scale(0.26458333)" />
                          <path
                             style="fill:#00ff00;stroke:none;stroke-width:1.13386;stroke-dasharray:none;stroke-opacity:1"
                             d="m 460.5,271.89864 c -11.275,-11.11947 -21.68796,-21.24734 -23.1399,-22.50639 -2.40749,-2.08765 -2.75204,-2.2381 -3.91359,-1.70886 -0.70053,0.31919 -11.88979,7.51109 -24.86501,15.98202 -25.78509,16.83389 -28.3315,18.42283 -28.3315,17.67867 0,-0.27552 5.99267,-12.55478 13.31706,-27.28724 9.56289,-19.23508 13.33339,-27.30071 13.375,-28.61102 0.0734,-2.31064 1.67407,-1.74873 -25.69206,-9.01896 -11.9625,-3.17802 -22.26342,-6.1028 -22.89093,-6.49951 -0.62752,-0.3967 -0.99011,-0.96533 -0.80576,-1.26361 1.13526,-1.83689 22.21488,-9.44748 34.19669,-12.34638 14.64176,-3.54245 24.10296,-4.55781 42.5,-4.56105 20.45602,-0.004 30.7755,1.0963 45.23664,4.82154 15.23475,3.92452 37.87275,12.70798 38.62028,14.98454 0.26257,0.79961 -1.10776,1.28565 -25.87226,9.1766 -26.34556,8.39474 -26.48466,8.44921 -26.48466,10.37144 0,0.77916 1.54766,7.26056 3.43925,14.40311 1.89159,7.14255 5.39592,20.36097 7.7874,29.37426 2.39148,9.01328 4.27507,16.57685 4.18575,16.80792 -0.0893,0.23106 -9.3874,-8.67762 -20.6624,-19.79708 z"
                             id="path18"
                             transform="scale(0.26458333)" />
                          <path
                             style="fill:#00ff00;stroke:none;stroke-width:1.13386;stroke-dasharray:none;stroke-opacity:1"
                             d="m 458.70095,270.24288 c -12.26448,-12.03202 -22.79228,-22.14037 -23.39511,-22.463 -1.33822,-0.71619 1.25589,-2.26831 -27.55584,16.48735 -24.71691,16.09005 -27.5,17.82052 -27.5,17.09895 0,-0.26337 5.59707,-11.816 12.43794,-25.67252 6.84087,-13.85651 12.96718,-26.5113 13.61401,-28.12174 l 1.17606,-2.92808 -1.06977,-0.86624 c -0.58837,-0.47644 -6.32092,-2.2702 -12.739,-3.98614 -37.16269,-9.93584 -36.90217,-9.85557 -36.11542,-11.12855 0.60282,-0.97538 8.27632,-4.26175 16.69618,-7.15056 14.48707,-4.97044 28.72696,-8.146 41.5,-9.2547 7.44839,-0.64652 29.8875,-0.64731 38.35509,-0.001 15.87408,1.21098 31.79368,5.17336 50.39491,12.54329 8.76698,3.47353 13.5,5.90481 13.5,6.93473 0,0.52062 -4.00148,2.02286 -13.75,5.16205 -38.08456,12.26385 -38.50157,12.41593 -38.49704,14.0402 0.003,1.10167 2.41888,10.55678 10.71692,41.94445 2.67269,10.10956 4.78534,18.5739 4.69478,18.80964 -0.0906,0.23574 -10.19924,-9.41576 -22.46371,-21.44778 z"
                             id="path19"
                             transform="scale(0.26458333)" />
                          <path
                             style="fill:#00ff00;stroke:none;stroke-width:1.13386;stroke-dasharray:none;stroke-opacity:1"
                             d="m 464.75,276.17613 c -8.9375,-8.77725 -19.34041,-18.88383 -23.11758,-22.45906 l -6.86758,-6.50043 -1.63242,0.83774 c -0.89783,0.46075 -12.44699,7.86592 -25.66479,16.45593 -24.51658,15.93288 -27.21763,17.60205 -27.21763,16.81967 0,-0.24514 5.30395,-11.21967 11.78655,-24.38784 11.24783,-22.84784 14.17869,-29.04071 14.94501,-31.57873 0.29701,-0.98366 0.0523,-1.2648 -1.81919,-2.08957 -1.1893,-0.52414 -8.57487,-2.66816 -16.41237,-4.76448 -7.8375,-2.09633 -17.175,-4.59573 -20.75,-5.55423 -7.75977,-2.0805 -10.75,-3.12467 -10.75,-3.75383 0,-1.7833 17.26202,-8.42575 31.75,-12.21745 16.90537,-4.42436 27.29299,-5.46507 50.75,-5.08452 20.77095,0.33697 28.87197,1.41586 44.75,5.95975 14.10708,4.0371 33.5,12.04933 33.5,13.8406 0,0.84165 1.18075,0.42329 -25.75,9.12366 -11.9625,3.86465 -22.7625,7.5104 -24,8.10165 -2.1435,1.02412 -2.24438,1.16731 -2.13127,3.02499 0.0653,1.07249 3.03202,12.99749 6.5927,26.5 7.96532,30.2054 8.62454,32.80669 8.43767,33.2951 -0.082,0.21433 -7.4616,-6.7917 -16.3991,-15.56895 z"
                             id="path20"
                             transform="scale(0.26458333)" />
                          <path
                             style="fill:#00ff00;stroke:none;stroke-width:1.13386;stroke-dasharray:none;stroke-opacity:1"
                             d="m 459,270.65137 c -12.1,-11.82098 -22.58928,-21.91648 -23.3095,-22.43444 l -1.3095,-0.94174 -6.9405,4.3904 c -3.81728,2.41472 -13.6905,8.78217 -21.9405,14.1499 -21.35502,13.8943 -24.80089,16.05028 -25.12884,15.72233 -0.16003,-0.16002 3.71728,-8.44649 8.61623,-18.41438 13.84404,-28.16846 17.74798,-36.5142 17.75558,-37.95738 0.006,-1.22289 -0.31556,-1.4396 -3.86797,-2.60313 -2.13125,-0.69806 -12.68602,-3.63714 -23.45504,-6.5313 -19.45188,-5.22766 -22.16996,-6.06752 -22.16996,-6.85036 0,-1.96037 18.05899,-8.73081 33.98485,-12.74115 15.90473,-4.00503 19.80939,-4.40666 43.01515,-4.42453 25.76783,-0.0198 32.73282,0.79673 50.55389,5.92688 C 499.23366,202.09636 518,209.88704 518,211.72353 c 0,0.51193 -7.16526,3.07955 -24.5,8.77941 -23.6302,7.76987 -26.64833,8.85947 -27.30056,9.85596 -0.5156,0.78777 0.37145,4.51262 7.83942,32.91882 3.99203,15.18465 7.19139,27.89147 7.10969,28.23739 C 481.06685,291.86103 471.1,282.47234 459,270.65137 Z"
                             id="path21"
                             transform="scale(0.26458333)" />
                          <path
                             style="fill:#00ff00;stroke:none;stroke-width:1.13386;stroke-dasharray:none;stroke-opacity:1"
                             d="m 458.75,270.47397 c -12.2375,-11.92758 -22.76557,-21.96294 -23.39571,-22.30081 -1.42475,-0.76393 0.15847,-1.67644 -22.10429,12.74006 -26.26953,17.01112 -32.55113,20.95232 -32.87623,20.62722 -0.16131,-0.16132 2.9269,-6.87391 6.86271,-14.91687 13.28645,-27.15137 19.00959,-39.22894 19.31656,-40.76381 0.26416,-1.32077 0.11182,-1.62787 -1.12373,-2.26527 -1.4289,-0.73715 -10.78736,-3.40769 -33.50564,-9.56121 -13.93101,-3.77339 -14.67367,-4.0234 -14.67367,-4.93977 0,-1.88995 18.9678,-8.97409 34.25,-12.79178 15.72408,-3.92808 25.11649,-4.78419 48.38576,-4.41036 18.77257,0.3016 24.78567,0.93258 36.86424,3.86836 16.72433,4.06496 41.25,13.55236 41.25,15.95697 0,0.5025 -7.48659,3.19225 -25.05042,9 -13.77773,4.55581 -25.42148,8.5921 -25.875,8.96952 -1.50621,1.25348 -1.75175,0.11363 8.23351,38.22192 3.30136,12.59948 5.93259,23.21059 5.84719,23.58023 -0.0854,0.36965 -10.16778,-9.08683 -22.40528,-21.0144 z"
                             id="path22"
                             transform="scale(0.26458333)" />
                          <path
                             style="fill:#00ff00;stroke:none;stroke-width:1.13386;stroke-dasharray:none;stroke-opacity:1"
                             d="M 461.5,273.17566 C 450.775,262.73244 440.34253,252.6884 438.31674,250.85557 l -3.68325,-3.33242 -2.34763,1.31073 c -1.2912,0.7209 -11.93943,7.51638 -23.66274,15.10106 -24.81838,16.05685 -27.88716,17.96769 -28.25892,17.59593 -0.15164,-0.15165 1.98996,-4.94563 4.75912,-10.6533 2.76915,-5.70766 8.19501,-16.88122 12.05745,-24.83012 8.29783,-17.07691 9.79334,-20.49224 9.41029,-21.49045 -0.37195,-0.96928 -4.43413,-2.22784 -27.50023,-8.5202 -21.4539,-5.85256 -21.84083,-5.9766 -21.84083,-7.00165 0,-2.29502 24.34991,-10.79576 40.79917,-14.2433 12.47004,-2.61355 14.87159,-2.79289 37.20083,-2.77815 22.32139,0.0147 27.12487,0.38576 38.49963,2.97364 17.98418,4.09161 45.18992,14.444 44.37591,16.88604 -0.10442,0.31325 -11.09404,4.20696 -24.42139,8.65268 -13.32734,4.44573 -24.95662,8.45809 -25.84284,8.91638 -0.96285,0.4979 -1.61131,1.21803 -1.61131,1.78937 0,1.53402 1.16394,6.25027 8.31049,33.67392 3.71305,14.24816 6.68091,26.20991 6.59525,26.58167 -0.0857,0.37177 -8.93074,-7.86852 -19.65574,-18.31174 z"
                             id="path23"
                             transform="scale(0.26458333)" />
                          <path
                             style="fill:#00ff00;stroke:none;stroke-width:1.13386;stroke-dasharray:none;stroke-opacity:1"
                             d="M 473.69762,285.06187 C 441.77593,254.19154 435.02344,247.75 434.58461,247.75 c -0.67651,0 -4.9954,2.70497 -25.83461,16.18054 -22.06501,14.26822 -28.02201,17.96411 -28.37901,17.60712 -0.28853,-0.28854 1.15045,-3.34926 16.00263,-34.03766 4.79127,-9.9 9.10442,-19.00678 9.58477,-20.23729 1.42616,-3.65336 3.22519,-2.90578 -26.95839,-11.20254 -21.33732,-5.86513 -21.75,-5.99842 -21.75,-7.02502 0,-2.30036 25.56862,-11.21378 41.5,-14.46722 10.35114,-2.11387 13.55217,-2.3905 30.87205,-2.66793 29.40091,-0.47095 40.3758,0.99047 62.72924,8.35305 15.25543,5.02471 27.09363,10.51764 25.64871,11.90101 -0.275,0.26329 -11.39883,4.12132 -24.71962,8.57341 -13.32079,4.45209 -24.85204,8.42174 -25.625,8.82146 -0.77296,0.39971 -1.40538,1.12037 -1.40538,1.60145 0,1.24706 2.18982,10.07616 9.05226,36.49758 3.30672,12.73138 5.94146,23.44672 5.85498,23.81187 -0.0878,0.37053 -3.3841,-2.45667 -7.45962,-6.39796 z"
                             id="path24"
                             transform="scale(0.26458333)" />
                          <path
                             style="fill:#00ff00;stroke:none;stroke-width:1.13386;stroke-dasharray:none;stroke-opacity:1"
                             d="m 475.7424,287.08473 c -2.89168,-2.7966 -12.90418,-12.47894 -22.25,-21.51631 -9.34582,-9.03736 -17.47632,-16.75486 -18.06777,-17.14998 -1.30312,-0.87056 0.61694,-1.99913 -29.17463,17.14812 -27.72201,17.81712 -26,16.77776 -26,15.69302 0,-0.26973 5.2026,-11.23848 11.56134,-24.375 16.20422,-33.4763 15.4841,-31.75414 13.75246,-32.88875 -1.10047,-0.72106 -10.40065,-3.44785 -33.8138,-9.91414 -13.7027,-3.78443 -14.5,-4.06239 -14.5,-5.05509 0,-2.61386 30.5317,-12.77184 46.60739,-15.5064 8.75128,-1.48864 17.76914,-1.89626 35.89261,-1.62239 19.79397,0.29911 24.83329,0.80039 36.47394,3.62815 17.59994,4.2754 42.64997,14.06773 41.8956,16.37744 -0.10717,0.32813 -11.42791,4.37779 -25.1572,8.99924 -13.72929,4.62145 -25.36297,8.79708 -25.85262,9.27916 -1.15086,1.13309 -1.40313,-0.0357 7.2209,33.45568 3.84334,14.92561 6.91623,27.45124 6.82864,27.83473 -0.0961,0.42054 -2.24582,-1.32071 -5.41686,-4.38748 z"
                             id="path25"
                             transform="scale(0.26458333)" />
                          <path
                             style="fill:#00ff00;stroke:none;stroke-width:1.13386;stroke-dasharray:none;stroke-opacity:1"
                             d="m 466.5,278.19913 c -7.975,-7.72082 -18.39466,-17.74391 -23.15479,-22.27354 l -8.65479,-8.2357 -2.34521,1.36063 c -1.28987,0.74835 -12.58271,7.91911 -25.09521,15.93502 -28.79538,18.44726 -27,17.36619 -27,16.25786 0,-0.27862 4.97338,-10.79737 11.05196,-23.375 13.51372,-27.96221 15.05641,-31.35931 14.85596,-32.71382 -0.20511,-1.38595 -2.42197,-2.13104 -24.40792,-8.20352 -21.4635,-5.92818 -24.20639,-6.8091 -24.40607,-7.83845 -0.47133,-2.42966 26.50022,-11.70578 43.84157,-15.0781 9.10851,-1.7713 16.39995,-2.27368 33.0645,-2.27814 15.61123,-0.004 25.36581,0.52619 32.75,1.78065 17.58145,2.98682 52.10706,15.39179 51.11574,18.36576 -0.10927,0.32779 -6.36751,2.67626 -13.9072,5.21883 -26.77547,9.02932 -36.19755,12.38879 -37.01839,13.199 -1.11317,1.09876 -1.20114,0.68696 6.85295,32.07911 6.46325,25.1916 7.58096,29.8586 7.14732,29.84376 -0.10473,-0.004 -6.71542,-6.32354 -14.69042,-14.04435 z"
                             id="path26"
                             transform="scale(0.26458333)" />
                          <path
                             style="fill:#00ff00;stroke:none;stroke-width:1.13386;stroke-dasharray:none;stroke-opacity:1"
                             d="M 468.25,279.94286 C 440.9343,253.58458 435.24158,248.25 434.42941,248.25 c -0.97129,0 0.61754,-0.98202 -25.92941,16.02632 -21.40288,13.71259 -27.41642,17.47368 -27.93832,17.47368 -0.17143,0 -0.31168,-0.23322 -0.31168,-0.51827 0,-0.28505 4.41699,-9.6788 9.81553,-20.875 11.52165,-23.89511 15.49184,-32.41514 15.94355,-34.21489 0.57275,-2.28204 1.94873,-1.80559 -36.25908,-12.55527 -11.62041,-3.26938 -12.5,-3.59024 -12.5,-4.55991 0,-1.96031 20.34114,-9.43218 36.10509,-13.26242 13.37985,-3.25095 16.57915,-3.59112 36.45265,-3.87577 30.35013,-0.4347 39.68044,0.81102 62.44226,8.33689 15.65891,5.1774 26.4183,10.01974 25.87627,11.64582 -0.10922,0.32765 -3.33231,1.66913 -7.16242,2.98106 -3.83012,1.31194 -14.27635,4.88398 -23.21385,7.93786 -8.9375,3.05389 -17.31875,6.00939 -18.625,6.56778 -3.47847,1.48697 -4.24428,-3.03944 6.86025,40.54819 2.92936,11.49833 5.25605,21.22868 5.17043,21.62298 -0.0926,0.42651 -5.32047,-4.26683 -12.90568,-11.58619 z"
                             id="path27"
                             transform="scale(0.26458333)" />
                          <path
                             style="fill:#00ff00;stroke:none;stroke-width:1.13386;stroke-dasharray:none;stroke-opacity:1"
                             d="M 469.5,281.1785 C 445.19668,257.77243 435.0479,248.25 434.40557,248.25 c -0.7687,0 -2.63801,1.15751 -24.65557,15.26722 -21.3984,13.71292 -28.61193,18.23278 -29.09887,18.23278 -0.22062,0 -0.40113,-0.23304 -0.40113,-0.51786 0,-0.28483 5.36031,-11.70358 11.9118,-25.375 6.55149,-13.67143 12.45211,-26.17314 13.1125,-27.78159 1.18409,-2.88398 1.1872,-2.93431 0.22527,-3.6377 -1.38615,-1.01357 -7.44259,-2.87698 -28.24957,-8.69167 -10.0375,-2.80507 -18.64375,-5.30965 -19.125,-5.56574 -1.76732,-0.94046 -0.89963,-1.98377 3.27806,-3.9415 9.53239,-4.46703 32.66356,-11.29973 44.85771,-13.25049 6.92262,-1.10744 38.51824,-1.61316 49.28692,-0.78887 12.23266,0.93634 22.21279,3.0776 36.46043,7.82268 16.95622,5.64715 27.57545,10.6426 25.94569,12.20524 -0.2496,0.23932 -9.34131,3.47492 -20.20381,7.19022 -23.73777,8.11903 -29.4579,10.1749 -30.3347,10.90257 -0.36591,0.30368 -0.6653,1.07617 -0.6653,1.71663 0,0.64046 3.27445,14.13653 7.27655,29.99127 4.0021,15.85475 7.20835,29.14157 7.125,29.52628 -0.0876,0.40438 -5.00318,-3.97304 -11.65155,-10.37597 z"
                             id="path28"
                             transform="scale(0.26458333)" />
                          <path
                             style="fill:#00ff00;stroke:none;stroke-width:1.13386;stroke-dasharray:none;stroke-opacity:1"
                             d="M 463.74906,275.69365 C 444.02241,256.75279 434.94101,248.25 434.43789,248.25 c -0.63123,0 -4.66171,2.50677 -26.93789,16.75408 -27.21774,17.40782 -27.25,17.42703 -27.25,16.22436 0,-0.28685 4.86104,-10.6931 10.80232,-23.125 10.94344,-22.89873 14.3176,-30.18371 14.93253,-32.24003 0.29385,-0.98261 0.047,-1.26568 -1.82248,-2.08961 -1.1893,-0.52417 -11.83737,-3.69565 -23.66237,-7.04773 -11.825,-3.35208 -21.89375,-6.30092 -22.375,-6.55297 -2.41728,-1.26605 0.10611,-2.94979 10.125,-6.75593 14.93994,-5.67564 32.72824,-10.10375 44.75,-11.13978 7.7355,-0.66664 36.22927,-0.66872 44,-0.003 11.3921,0.97565 21.72671,3.27699 35.75,7.9609 16.08938,5.37401 26.36726,10.20717 25.31758,11.90557 -0.14767,0.23895 -6.41079,2.53512 -13.91804,5.10261 -26.65489,9.11601 -36.53526,12.74586 -37.08964,13.62599 -0.42916,0.68133 1.05784,7.29153 6.87865,30.57791 4.0844,16.33977 7.34369,29.95613 7.24287,30.25857 -0.10081,0.30245 -7.94538,-6.90298 -17.43236,-16.01207 z"
                             id="path29"
                             transform="scale(0.26458333)" />
                          <path
                             style="fill:#00ff00;stroke:none;stroke-width:1.13386;stroke-dasharray:none;stroke-opacity:1"
                             d="m 464.5,276.47082 c -16.5467,-15.86359 -27.75243,-26.41909 -29.36088,-27.65718 -1.04287,-0.80273 1.71978,-2.42536 -27.13912,15.94012 -27.99989,17.81881 -27.75,17.6706 -27.75,16.45945 0,-0.29523 5.41313,-11.90771 12.02918,-25.80551 6.61605,-13.89781 12.45349,-26.34524 12.97211,-27.66097 0.88476,-2.24467 0.89067,-2.43771 0.0958,-3.12963 -1.16436,-1.01357 -5.85252,-2.48327 -27.59711,-8.65146 -10.3125,-2.9253 -19.14375,-5.52845 -19.625,-5.78478 -0.48125,-0.25632 -0.875,-0.7928 -0.875,-1.19217 0,-2.50811 26.73356,-11.70083 43.58004,-14.98563 10.0806,-1.96555 17.97072,-2.39032 39.16996,-2.10874 20.24387,0.26889 24.25053,0.63151 34.96818,3.16479 11.76242,2.78022 27.9448,8.30144 37.03182,12.63477 5.05364,2.40993 6.79417,3.73339 5.95381,4.52713 -0.48792,0.46086 -5.31274,2.18268 -27.96603,9.98021 -18.45346,6.35189 -22.58848,7.9385 -22.91639,8.79304 -0.36098,0.94068 2.06854,11.45513 8.65904,37.47461 3.06048,12.08289 5.49815,22.38556 5.41704,22.89483 -0.10859,0.68182 -4.4977,-3.2447 -16.64747,-14.89288 z"
                             id="path30"
                             transform="scale(0.26458333)" />
                          <path
                             id="rect30"
                             style="fill:#00ff00;stroke-width:0.600001"
                             d="m 114.74782,42.28204 h 2.12217 l 0.52917,12.722028 h -3.18051 z"
                             sodipodi:nodetypes="ccccc" />
                          <path
                             style="fill:#00ff00;stroke:none;stroke-width:0.141732;stroke-dasharray:none;stroke-opacity:1"
                             d="m 421.53125,191.84368 c 2.2328,-0.18128 6.01689,-0.36437 8.4375,-0.40824 1.01406,-0.0184 1.96328,-0.046 2.10937,-0.0614 0.24481,-0.0258 0.26563,-0.0165 0.26563,0.11835 v 0.14631 l -1.39063,0.0407 c -0.76484,0.0224 -2.76875,0.0678 -4.45312,0.10105 -1.68438,0.0332 -3.625,0.0719 -4.3125,0.0859 -0.88277,0.018 -1.07557,0.0114 -0.65625,-0.0227 z"
                             id="path31"
                             transform="scale(0.26458333)" />
                          <path
                             style="fill:#00ff00;stroke:none;stroke-width:0.00885827;stroke-dasharray:none;stroke-opacity:1"
                             d="m 429.72461,191.71774 c 0,-0.007 0.0282,-0.008 0.41406,-0.0166 0.39946,-0.009 0.44184,-0.0102 1.45117,-0.039 0.38028,-0.0108 0.7061,-0.0207 0.72405,-0.022 l 0.0326,-0.002 -0.002,-0.10411 c -0.001,-0.0631 -0.004,-0.10983 -0.006,-0.11863 -0.0161,-0.0515 -0.06,-0.0609 -0.21519,-0.0465 -0.14752,0.0137 -0.44269,0.0256 -0.97852,0.0394 -0.0838,0.002 -0.18486,0.005 -0.22461,0.006 -0.11713,0.003 -1.14174,0.0253 -1.19043,0.0254 -0.003,1e-5 -0.005,-0.006 -0.005,-0.015 v -0.015 l 0.11426,-0.003 c 0.0628,-0.001 0.1749,-0.004 0.24902,-0.006 0.26939,-0.007 0.80173,-0.0198 1.17578,-0.0273 0.44701,-0.009 1.11422,-0.0201 1.1152,-0.0186 3.6e-4,5.5e-4 -0.002,0.0713 -0.006,0.15725 -0.004,0.0859 -0.007,0.15905 -0.007,0.16248 -2.5e-4,0.006 -0.0249,0.006 -0.24539,0.009 -0.53776,0.006 -1.19628,0.016 -1.80762,0.0279 -0.56142,0.0109 -0.58789,0.0112 -0.58789,0.007 z"
                             id="path32"
                             transform="scale(0.26458333)" />
                          <path
                             style="fill:#00ff00;stroke:none;stroke-width:0.141732;stroke-dasharray:none;stroke-opacity:1"
                             d="m 443.51772,191.7976 c 0.18162,-0.0127 0.46287,-0.0125 0.625,3e-4 0.16213,0.0128 0.0135,0.0232 -0.33022,0.023 -0.34375,-1.6e-4 -0.4764,-0.0107 -0.29478,-0.0233 z"
                             id="path33"
                             transform="scale(0.26458333)" />
                          <path
                             style="fill:#00ff00;stroke:none;stroke-width:0.0125275;stroke-dasharray:none;stroke-opacity:1"
                             d="m 445.78387,191.8378 c -0.13217,-0.002 -0.45285,-0.006 -0.71263,-0.01 -0.6616,-0.008 -0.88883,-0.0129 -0.87284,-0.0171 0.0127,-0.003 0.013,-0.004 0.003,-0.007 -0.0639,-0.0206 -0.69356,-0.0192 -0.7559,0.002 -0.009,0.003 -0.0913,0.004 -0.20781,0.002 l -0.19217,-0.004 -0.004,-0.0999 c -0.002,-0.055 -0.005,-0.12164 -0.007,-0.14816 l -0.003,-0.0482 0.0435,0.003 c 0.0239,0.002 0.18522,0.009 0.3584,0.0166 0.85863,0.0375 2.58376,0.12882 2.59212,0.13718 0.001,0.001 0.001,0.0413 2.9e-4,0.0896 l -0.002,0.0878 z"
                             id="path34"
                             transform="scale(0.26458333)" />
                          <path
                             style="fill:#00ff00;stroke:none;stroke-width:0.0501099;stroke-dasharray:none;stroke-opacity:1"
                             d="m 447.68698,191.87632 c -0.49829,-0.0101 -1.07751,-0.0244 -1.28716,-0.0318 l -0.38117,-0.0134 v -0.0857 -0.0857 l 0.12706,0.011 c 0.0699,0.006 0.37565,0.0262 0.67948,0.0447 0.57294,0.035 1.96457,0.13225 2.33125,0.16293 0.18987,0.0159 0.17299,0.0175 -0.17678,0.0169 -0.21268,-3.7e-4 -0.79439,-0.009 -1.29268,-0.019 z"
                             id="path35"
                             transform="scale(0.26458333)" />
                          <text
                             xml:space="preserve"
                             style="font-style:normal;font-variant:normal;font-weight:bold;font-stretch:normal;font-size:52.7537px;font-family:'Times New Roman';-inkscape-font-specification:'Times New Roman, Bold';font-variant-ligatures:normal;font-variant-caps:normal;font-variant-numeric:normal;font-variant-east-asian:normal;text-align:center;text-orientation:sideways;text-anchor:middle;fill:#000000;stroke-width:0.30987"
                             x="115.54456"
                             y="113.8175"
                             id="text5"><tspan
                               sodipodi:role="line"
                               id="tspan5"
                               style="fill:#000000;stroke-width:0.30987"
                               x="115.54456"
                               y="113.8175">L</tspan></text>
                        </g>
                      </g>
                    </g>
                  </g>
                </g>
              </g>
            </g>
          </g>
        </g>
      </g>
    </g>
  </g>
</svg>
